<svg width="16" height="16" viewBox="0 0 16 16" fill="none" xmlns="http://www.w3.org/2000/svg">
<path d="M8.20006 16H8.00004C6.70004 16 5.60004 15.9999 4.50004 15.8999C3.50004 15.8999 2.50003 15.4999 1.80003 14.8999C1.10003 14.2999 0.500032 13.5 0.300032 12.5C0.100032 11.7 1.93417e-05 10.8 0.100019 10C0.100019 9.4 0.100019 8.7 0.100019 8C0.100019 7.3 0.100019 6.6 0.100019 6C0.100019 5.2 0.200032 4.3 0.300032 3.5C0.500032 2.6 1.00003 1.7001 1.80003 1.1001C2.60003 0.500098 3.50004 0.100098 4.50004 0.100098C5.60004 9.76548e-05 6.80004 0 8.00004 0C9.30004 0 10.4 9.76548e-05 11.5 0.100098C12.5 0.100098 13.5001 0.500098 14.2001 1.1001C14.9001 1.7001 15.5001 2.5 15.7001 3.5C15.9001 4.3 16.0001 5.2 15.9001 6C15.9001 6.6 15.9001 7.3 15.9001 8C15.9001 8.7 15.9001 9.4 15.9001 10C15.9001 10.8 15.8001 11.7 15.7001 12.5C15.5001 13.4 15.0001 14.2999 14.2001 14.8999C13.4001 15.4999 12.5 15.8999 11.5 15.8999C10.5 15.9999 9.40006 16 8.20006 16ZM8.00004 14.8C9.20004 14.8 10.4 14.8 11.5 14.7C12.2 14.7 12.9 14.3999 13.5 13.8999C14 13.4999 14.4 12.9 14.5 12.2C14.7 11.5 14.7001 10.7 14.7001 10C14.7001 9.4 14.7001 8.7 14.7001 8C14.7001 7.3 14.7001 6.6 14.7001 6C14.7001 5.3 14.7 4.50005 14.5 3.80005C14.3 3.10005 14.0001 2.5001 13.4001 2.1001C12.8001 1.6001 12.1001 1.40005 11.4001 1.30005C10.3001 1.20005 9.20007 1.19995 7.90007 1.19995C6.70007 1.19995 5.50007 1.20005 4.40007 1.30005C3.70007 1.30005 3.00007 1.6001 2.40007 2.1001C1.90007 2.5001 1.50007 3.10005 1.40007 3.80005C1.20007 4.50005 1.20006 5.3 1.20006 6C1.20006 6.6 1.20006 7.3 1.20006 8C1.20006 8.7 1.20006 9.4 1.20006 10C1.20006 10.7 1.20007 11.5 1.40007 12.2C1.60007 12.9 1.90004 13.4999 2.50004 13.8999C3.10004 14.3999 3.80004 14.6 4.50004 14.7C5.60004 14.7 6.80004 14.8 8.00004 14.8ZM8.00004 11.8999C5.80004 11.8999 4.10002 10.2 4.10002 8C4.10002 5.8 5.80004 4.1001 8.00004 4.1001C10.2 4.1001 11.9001 5.8 11.9001 8C11.9001 10.2 10.1 11.8999 8.00004 11.8999ZM8.00004 5.30005C6.50004 5.30005 5.30003 6.5 5.30003 8C5.30003 9.5 6.50004 10.7 8.00004 10.7C9.50004 10.7 10.7001 9.5 10.7001 8C10.6001 6.5 9.40004 5.30005 8.00004 5.30005ZM12.3 2.80005C11.8 2.80005 11.4001 3.19995 11.4001 3.69995C11.4001 4.19995 11.8 4.6001 12.3 4.6001C12.8 4.6001 13.2001 4.19995 13.2001 3.69995C13.3001 3.29995 12.8 2.80005 12.3 2.80005Z" fill="#CEBD88"/>
</svg>
