<svg width="21" height="17" viewBox="0 0 21 17" fill="none" xmlns="http://www.w3.org/2000/svg">
<path d="M8.70007 4.50005C8.40007 4.30005 8.00007 4.40005 7.80007 4.70005C7.70007 4.80005 7.70007 4.90005 7.70007 5.00005V11.1C7.70007 11.5 8.00007 11.8 8.40007 11.8C8.50007 11.8 8.60007 11.8 8.70007 11.7L13.8001 8.60005C14.1001 8.40005 14.2001 8.00005 14.0001 7.70005C13.9001 7.60005 13.9001 7.50005 13.8001 7.50005L8.70007 4.50005ZM9.00007 10V6.20005L12.2001 8.10005L9.00007 10Z" fill="#CEBD88"/>
<path d="M17.4 0.500049C12.8 -0.0999512 8.20002 -0.0999512 3.60002 0.500049C1.90002 0.700049 0.600024 2.00005 0.400024 3.60005C-0.0999756 6.60005 -0.0999756 9.60005 0.400024 12.5C0.700024 14.1 2.00002 15.4 3.60002 15.7C5.90002 16 8.20002 16.2001 10.5 16.2001C12.8 16.2001 15.1 16.1 17.4 15.7C19 15.4 20.3 14.2 20.6 12.5C21.1 9.50005 21.1 6.50005 20.6 3.60005C20.4 2.00005 19.1 0.700049 17.4 0.500049ZM19.3 12.3C19.1 13.4 18.3 14.2 17.2 14.4C12.7 15 8.20002 15 3.70002 14.4C2.60002 14.2 1.80002 13.4 1.60002 12.3C1.10002 9.50005 1.10002 6.60005 1.60002 3.80005C1.80002 2.70005 2.60002 1.90005 3.70002 1.70005C6.00002 1.50005 8.30002 1.30005 10.5 1.30005C12.8 1.30005 15 1.40005 17.2 1.70005C18.3 1.90005 19.1 2.70005 19.3 3.80005C19.8 6.70005 19.8 9.50005 19.3 12.3Z" fill="#CEBD88"/>
</svg>
