<svg width="20" height="16" viewBox="0 0 20 16" fill="none" xmlns="http://www.w3.org/2000/svg">
<path d="M18.9 1.8999C18.5 2.0999 17.9999 2.20005 17.5999 2.30005C18.0999 1.80005 18.5 1.2001 18.7 0.600098C18.7 0.500098 18.6999 0.400049 18.5999 0.300049C18.4999 0.300049 18.5 0.300049 18.4 0.300049C17.8 0.700049 17.1 1.0001 16.4 1.1001H16.2999C16.1999 1.1001 16 1.1 15.9 1C15.1 0.3 14.2 0 13.2 0C12.8 0 12.3 0.0999512 11.9 0.199951C10.6 0.599951 9.49995 1.7001 9.19995 3.1001C9.09995 3.6001 8.99991 4.1001 9.09991 4.6001V4.69995L8.99994 4.80005C6.09994 4.50005 3.39994 3.10005 1.49994 0.800049C1.39994 0.700049 1.29995 0.700049 1.19995 0.800049C1.19995 0.800049 1.19995 0.799902 1.19995 0.899902C0.199951 2.4999 0.499963 4.5999 1.89996 5.8999C1.59996 5.7999 1.29994 5.7 0.999939 5.5C0.899939 5.4 0.799951 5.5001 0.699951 5.6001V5.69995C0.699951 7.29995 1.59991 8.8 3.09991 9.5H2.99994C2.79994 9.5 2.49993 9.4999 2.29993 9.3999C2.19993 9.3999 2.09994 9.5001 1.99994 9.6001V9.69995C2.49994 11.2 3.69993 12.3 5.29993 12.5C3.99993 13.4 2.49994 13.8 0.999939 13.8H0.499939C0.399939 13.8 0.199951 13.9 0.199951 14C0.199951 14.1 0.199963 14.2999 0.399963 14.3999C2.09996 15.3999 4.09991 15.8999 6.09991 15.8999C7.79991 15.8999 9.49994 15.5999 10.9999 14.8999C12.3999 14.2999 13.5999 13.4 14.5999 12.2C15.4999 11.1 16.2999 9.9 16.7999 8.5C17.2999 7.2 17.4999 5.9 17.4999 4.5V4.3999C17.4999 4.1999 17.5999 3.9999 17.7999 3.8999C18.3999 3.3999 19 2.8001 19.4 2.1001C19.5 2.0001 19.3999 1.90005 19.2999 1.80005C19.0999 1.80005 19 1.7999 18.9 1.8999Z" fill="#CEBD88"/>
</svg>
